<svg xmlns="http://www.w3.org/2000/svg"  viewBox="0 0 100 100" width="200px" height="200px"><path d="M43.785,95.951c-2.461,0-4.868-0.703-6.959-2.032c-2.93-1.863-4.959-4.756-5.715-8.144 c-0.645-2.897,0.28-6.978,1.558-9.607c-6.564-4.988-12.417-9.191-15.547-12.597c-0.05,0.001-0.1,0.001-0.149,0.001 c-2.068,0-4.192-0.645-6.143-1.863L7.3,59.516C2.063,56.24,0.47,49.333,3.735,44.111l15.416-24.219 c2.031-3.246,5.573-5.204,9.454-5.204c2.094,0,4.14,0.588,5.917,1.7l2.831,1.752c1.512,0.945,2.75,1.969,3.708,3.064 c2.998-0.53,6.606-0.972,10.327-0.972c2.468,0,4.76,0.198,6.862,0.593c2.56-6.505,8.212-11.471,15.322-13.054 c1.506-0.336,3.061-0.507,4.619-0.507c0.855,0,1.724,0.052,2.581,0.154c2.23,0.264,4.14,1.634,5.104,3.666 c0.964,2.029,0.82,4.374-0.384,6.271l-3.38,5.318l3.378-5.313c1.118-1.763,3-2.858,5.16-3.003l0.181-0.012l0.181,0.001 c2.249,0.013,4.299,1.16,5.485,3.069c1.292,2.077,2.212,4.32,2.735,6.665c2.279,10.23-3.177,20.413-12.468,24.418 c2.27,3.611,2.437,8.372,0.02,12.237c-1.664,2.661-4.275,4.479-7.259,5.134c-0.227,0.521-0.495,1.028-0.802,1.521 c-1.372,2.195-3.388,3.851-5.853,4.849c-0.307,0.951-0.737,1.875-1.287,2.754c-1.847,2.955-4.751,4.897-8.191,5.548 c-1.356,2.62-3.499,4.554-6.194,5.562l-2.425,3.815c-1.863,2.931-4.755,4.961-8.145,5.716 C45.69,95.846,44.734,95.951,43.785,95.951z" opacity=".35"/><path fill="#f2f2f2" d="M41.785,93.951c-2.461,0-4.868-0.703-6.959-2.032c-2.93-1.863-4.959-4.756-5.715-8.144 c-0.645-2.897-0.293-5.859,0.985-8.488c-6.564-4.988-11.844-10.31-14.974-13.716c-0.05,0.001-0.1,0.001-0.149,0.001 c-2.068,0-4.192-0.645-6.143-1.863L5.3,57.516C0.063,54.24-1.53,47.333,1.735,42.111l15.416-24.219 c2.031-3.246,5.573-5.204,9.454-5.204c2.094,0,4.14,0.588,5.917,1.7l2.831,1.752c1.512,0.945,2.75,1.969,3.708,3.064 c2.998-0.53,6.606-0.972,10.327-0.972c2.468,0,4.76,0.198,6.862,0.593c2.56-6.505,8.212-11.471,15.322-13.054 c1.506-0.336,3.061-0.507,4.619-0.507c0.855,0,1.724,0.052,2.581,0.154c2.23,0.264,4.14,1.634,5.104,3.666 c0.964,2.029,0.82,4.374-0.384,6.271l-3.38,5.318l3.378-5.313c1.118-1.763,3-2.858,5.16-3.003l0.181-0.012l0.181,0.001 c2.249,0.013,4.299,1.16,5.485,3.069c1.292,2.077,2.212,4.32,2.735,6.665c2.279,10.23-3.177,20.413-12.468,24.418 c2.27,3.611,2.437,8.372,0.02,12.237c-1.664,2.661-4.275,4.479-7.259,5.134c-0.227,0.521-0.495,1.028-0.802,1.521 c-1.372,2.195-3.388,3.851-5.853,4.849c-0.307,0.951-0.737,1.875-1.287,2.754c-1.847,2.955-4.751,4.897-8.191,5.548 c-1.356,2.62-3.499,4.554-6.194,5.562l-2.425,3.815c-1.863,2.931-4.755,4.961-8.145,5.716 C43.69,93.846,42.734,93.951,41.785,93.951z"/><path fill="#9aa2e6" d="M88.975,18.848l-6.865,10.8l-10.971-6.975l6.865-10.8c-1.634-0.193-3.323-0.135-5.02,0.243 c-8.086,1.801-13.181,9.817-11.38,17.903c0.378,1.697,1.043,3.251,1.911,4.648L59.49,41L36.314,77.461 c-1.926,3.03-1.031,7.047,1.999,8.973c3.03,1.926,7.047,1.031,8.973-1.999l22.972-36.139l4.229-6.653 c1.634,0.193,3.323,0.135,5.02-0.243c8.086-1.801,13.181-9.817,11.38-17.903C90.508,21.8,89.844,20.246,88.975,18.848z"/><path fill="#ffc7a3" d="M51.826,76.785c-1.631,0.363-4.781,0.054-10.528-3.485c-11.274-6.94-21.016-15.164-23.098-17.623 l-0.313-0.707l-1.492-1.118c-0.416,0.665-0.588-0.491-1.142-0.368c-0.785,0.175-1.622-0.208-2.185-0.56L9.523,50.72 c-1.479-0.925-1.931-2.885-1.005-4.368L23.9,22.189c0.46-0.737,1.171-1.239,2.007-1.425c0.818-0.182,1.659-0.038,2.37,0.406 l2.777,1.653c2.742,1.714,2.032,2.85,1.729,3.335l1.686,2.237c0.01-0.002,1.006-0.287,2.606-0.644 c4.778-1.064,18.958-4.783,25.216-0.871c4.752,2.971,3.336,9.238,2.526,10.644l0.351,4.29l6.3,4.416l5.409,3.441 c0.801,0.501,1.354,1.275,1.564,2.186c0.21,0.912,0.053,1.849-0.442,2.642c-0.501,0.801-1.285,1.356-2.207,1.561 c-0.903,0.201-1.832,0.042-2.616-0.449l-1.859-1.282l-1.957,2.248c0.077,0.086,2.004,2.295,0.578,4.577 c-0.627,1.002-1.666,1.671-3.089,1.988c-1.162,0.259-2.142,0.175-2.151,0.174l0.233,2.334l-1.709-0.157 c0.018,0.04,0.681,1.496-0.423,3.262c-0.635,1.016-1.509,1.635-2.672,1.895c-1.614,0.36-3.179-0.129-3.194-0.134l0.301,1.971 l-2.263-0.522C54.971,72.126,54.959,76.087,51.826,76.785C51.827,76.785,51.826,76.785,51.826,76.785z"/><polygon fill="#70bfff" points="33.57,25.565 16.365,52.663 15.007,55.027 9.176,51.678 4.993,48.279 7.657,42.207 21.801,23.704 24.077,19.828 26.911,18.31 30.369,21.172 33.202,22.831 34.944,25.096"/><circle cx="13.748" cy="47.448" r="2" fill="#40396e"/><polyline fill="#40396e" points="62.152,39.8 53.989,34.565 63.978,36.778 62.152,39.8" opacity=".35"/><g><path fill="#9aa2e6" d="M62.152,39.8l3.134-5.123l-0.498-0.801c-0.816-1.313-1.395-2.72-1.721-4.183 C61.449,22.427,66.044,15.2,73.31,13.581c0.661-0.147,1.334-0.243,2.014-0.287l-6.255,9.841l13.503,8.584l6.255-9.842 c0.249,0.635,0.448,1.285,0.595,1.945c1.619,7.266-2.976,14.494-10.242,16.112c-1.463,0.326-2.983,0.399-4.517,0.217l-0.937-0.111 l-3.291,5.371L62.152,39.8z"/><path fill="none" stroke="#40396e" stroke-linecap="round" stroke-linejoin="round" stroke-miterlimit="10" stroke-width="3" d="M88.975,18.848l-6.865,10.8l-10.971-6.975l6.865-10.8c-1.634-0.193-3.323-0.135-5.02,0.243c-7.31,1.628-12.156,8.337-11.692,15.583 c-0.195-0.144-0.381-0.292-0.596-0.427c-8.75-5.471-26.173-0.391-26.173-0.391c1.368-2.188-0.402-3.847-2.59-5.214l-2.86-1.77 c-2.188-1.368-5.07-0.703-6.438,1.485L7.247,45.556c-1.368,2.188-0.703,5.07,1.485,6.438l3.543,2.202 c2.188,1.368,4.137,0.965,4.889-0.152l0,0c0,0,9.247,11.343,21.665,19.462l-2.514,3.955c-1.926,3.03-1.031,7.047,1.999,8.973 c3.03,1.926,7.047,1.031,8.973-1.999l3.848-6.053c5.421-0.331,5.337-6.44,5.337-6.44s5.063,1.666,7.601-2.393 c1.603-2.564,0.486-4.741,0.486-4.741s4.583,0.451,6.653-2.86c2.07-3.311-0.743-6.384-0.743-6.384l1.915,1.319 c2.341,1.464,5.426,0.752,6.89-1.589c1.464-2.341,0.752-5.426-1.589-6.89l-5.338-3.39l2.143-3.371 c1.634,0.193,3.323,0.135,5.02-0.243c8.086-1.801,13.181-9.817,11.38-17.903C90.508,21.8,89.844,20.246,88.975,18.848z"/></g></svg>