<svg xmlns="http://www.w3.org/2000/svg"  viewBox="0 0 100 100" width="200px" height="200px"><path d="M52.891,95.715c-6.199,0-12.003-1.024-17.25-3.045c-5.357-2.064-10.05-5.054-13.949-8.887 c-3.913-3.845-6.966-8.474-9.072-13.757C10.55,64.834,9.5,59.042,9.5,52.81c0-8.702,1.9-16.482,5.649-23.125 c3.805-6.741,9.195-12.067,16.022-15.83c6.706-3.696,14.531-5.57,23.258-5.57c7.691,0,14.613,1.57,20.574,4.667 c6.18,3.212,11.041,7.819,14.45,13.696c3.35,5.779,5.047,12.538,5.047,20.089c0,5.616-0.851,10.651-2.528,14.966 c-1.845,4.742-4.559,8.541-8.067,11.292c-0.576,0.451-1.168,0.87-1.775,1.254c1.062,2.48,1.24,5.203,0.514,7.9 c-0.574,2.111-2.018,5.054-5.655,7.21c-3.063,1.948-6.689,3.511-10.78,4.647C62.122,95.14,57.642,95.715,52.891,95.715z" opacity=".35"/><path fill="#f2f2f2" d="M50.891,93.715c-6.199,0-12.003-1.024-17.25-3.045c-5.357-2.064-10.05-5.054-13.949-8.887 c-3.913-3.845-6.966-8.474-9.072-13.757C8.55,62.834,7.5,57.042,7.5,50.81c0-8.702,1.9-16.482,5.649-23.125 c3.805-6.741,9.195-12.067,16.022-15.83c6.706-3.696,14.531-5.57,23.258-5.57c7.691,0,14.613,1.57,20.574,4.667 c6.18,3.212,11.041,7.819,14.45,13.696c3.35,5.779,5.047,12.538,5.047,20.089c0,5.616-0.851,10.651-2.528,14.966 c-1.845,4.742-4.559,8.541-8.067,11.292c-0.576,0.451-1.168,0.87-1.775,1.254c1.062,2.48,1.24,5.203,0.514,7.9 c-0.574,2.111-2.018,5.054-5.655,7.21c-3.063,1.948-6.689,3.511-10.78,4.647C60.122,93.14,55.642,93.715,50.891,93.715z"/><path fill="#70bfff" d="M50.891,87.215c-5.397,0-10.415-0.878-14.914-2.611c-4.521-1.741-8.467-4.25-11.729-7.457 c-3.266-3.208-5.819-7.087-7.59-11.529C14.894,61.196,14,56.214,14,50.81c0-7.569,1.618-14.275,4.81-19.931 c3.203-5.675,7.744-10.16,13.499-13.332c5.733-3.16,12.503-4.763,20.12-4.763c6.638,0,12.552,1.324,17.577,3.935 c5.066,2.633,9.044,6.397,11.823,11.188C84.597,32.683,86,38.345,86,44.736c0,4.808-0.702,9.051-2.086,12.61 c-1.416,3.64-3.441,6.51-6.02,8.532c-2.636,2.066-5.753,3.114-9.267,3.114c-5.922,0-9.074-2.522-10.748-5.3 c-1.238,1.45-2.63,2.606-4.156,3.452c-2.214,1.227-4.638,1.849-7.206,1.849c-4.802,0-8.614-1.561-11.329-4.638 c-2.667-3.022-4.02-7.144-4.02-12.249c0-4.152,0.799-7.914,2.376-11.18c1.593-3.303,3.822-5.94,6.625-7.839 c2.833-1.917,6.113-2.89,9.75-2.89c3.875,0,6.915,1.186,9.077,3.533c1.068-1.878,2.957-2.885,5.5-2.885 c1.969,0,3.472,0.603,4.47,1.792c0.996,1.188,1.324,2.811,0.977,4.822L67.431,51.48c-0.361,1.908-0.543,3.395-0.543,4.432 c0,2.875,1.19,3.116,2.307,3.116c1.778,0,3.235-1.163,4.454-3.554c1.37-2.69,2.064-6.303,2.064-10.738 c0-6.977-2.057-12.395-6.113-16.103c-4.096-3.742-9.9-5.64-17.25-5.64c-5.543,0-10.406,1.148-14.452,3.413 c-4.02,2.25-7.173,5.469-9.373,9.564c-2.219,4.133-3.344,9.126-3.344,14.84c0,5.501,1.057,10.262,3.143,14.152 c2.062,3.847,5.032,6.843,8.829,8.906c3.835,2.083,8.458,3.139,13.74,3.139c3.142,0,6.075-0.364,8.718-1.082 c2.634-0.716,5.08-1.751,7.271-3.075c1.077-0.637,2.102-0.956,3.06-0.956c0.451,0,0.892,0.07,1.309,0.209 c1.272,0.423,2.251,1.297,2.828,2.528c0.558,1.189,0.656,2.475,0.292,3.822c-0.379,1.396-1.324,2.533-2.81,3.381 c-2.479,1.6-5.56,2.928-9.089,3.909C58.95,86.72,55.054,87.215,50.891,87.215z M51.62,40.729c-2.333,0-4.194,0.958-5.689,2.93 c-1.571,2.071-2.367,4.886-2.367,8.366c0,2.278,0.444,3.974,1.32,5.041c0.814,0.994,1.984,1.477,3.578,1.477 c2.248,0,4.042-1.02,5.486-3.116c1.544-2.244,2.327-5.296,2.327-9.071C56.274,41.397,53.921,40.729,51.62,40.729z"/><path fill="#40396e" d="M52.429,14.285c6.425,0,12.053,1.255,16.886,3.766c4.831,2.511,8.571,6.047,11.217,10.61 c2.645,4.563,3.968,9.921,3.968,16.076c0,4.644-0.662,8.666-1.984,12.066c-1.324,3.401-3.173,6.034-5.548,7.896 c-2.376,1.863-5.156,2.794-8.341,2.794c-5.454,0-8.936-2.24-10.447-6.722c-1.458,2.268-3.186,3.956-5.183,5.062 c-1.999,1.107-4.158,1.661-6.479,1.661c-4.373,0-7.775-1.377-10.204-4.131s-3.644-6.505-3.644-11.257 c0-3.941,0.742-7.451,2.227-10.528c1.485-3.077,3.523-5.493,6.115-7.248c2.591-1.754,5.56-2.632,8.908-2.632 c4.535,0,7.72,1.782,9.556,5.345l0.162-0.648c0.486-2.699,2.106-4.049,4.859-4.049c1.511,0,2.618,0.419,3.32,1.256 c0.701,0.837,0.918,2.038,0.648,3.603l-2.511,14.011c-0.378,1.998-0.567,3.563-0.567,4.697c0,3.078,1.268,4.616,3.807,4.616 c2.375,0,4.305-1.458,5.79-4.373c1.485-2.916,2.228-6.722,2.228-11.419c0-7.451-2.201-13.187-6.6-17.21 c-4.401-4.021-10.488-6.033-18.262-6.033c-5.831,0-10.893,1.202-15.185,3.603c-4.292,2.403-7.613,5.791-9.962,10.164 c-2.348,4.373-3.523,9.556-3.523,15.549c0,5.778,1.106,10.73,3.32,14.861c2.213,4.131,5.358,7.301,9.435,9.516 c4.076,2.214,8.895,3.321,14.456,3.321c3.293,0,6.33-0.379,9.111-1.134c2.781-0.756,5.331-1.836,7.653-3.239 c0.834-0.493,1.596-0.74,2.284-0.74c0.291,0,0.569,0.044,0.834,0.132c0.891,0.296,1.539,0.877,1.944,1.741 c0.404,0.863,0.472,1.795,0.203,2.794c-0.271,0.998-0.972,1.822-2.106,2.47c-2.43,1.565-5.345,2.821-8.746,3.766 c-3.401,0.944-7.127,1.417-11.176,1.417c-5.237,0-10.03-0.837-14.375-2.511c-4.347-1.674-8.086-4.049-11.217-7.126 c-3.132-3.078-5.548-6.749-7.248-11.015c-1.7-4.264-2.551-9.016-2.551-14.253c0-7.342,1.539-13.74,4.616-19.193 c3.078-5.453,7.382-9.705,12.917-12.755C38.567,15.811,45.032,14.285,52.429,14.285 M48.461,60.042 c2.754,0,4.994-1.256,6.722-3.766c1.727-2.511,2.592-5.817,2.592-9.921c0-4.75-2.053-7.126-6.155-7.126 c-2.808,0-5.102,1.174-6.884,3.523c-1.782,2.348-2.672,5.44-2.672,9.273c0,2.646,0.553,4.644,1.66,5.993 C44.829,59.368,46.409,60.042,48.461,60.042 M52.429,11.285c-7.873,0-14.886,1.665-20.844,4.949 c-6.002,3.308-10.74,7.988-14.082,13.908C14.183,36.026,12.5,42.979,12.5,50.81c0,5.596,0.93,10.765,2.764,15.364 c1.848,4.635,4.516,8.687,7.932,12.043c3.408,3.351,7.527,5.97,12.241,7.786c4.671,1.799,9.87,2.711,15.453,2.711 c4.299,0,8.329-0.514,11.979-1.527c3.647-1.013,6.844-2.39,9.505-4.094c2.243-1.307,3.108-3.027,3.439-4.246 c0.453-1.681,0.32-3.358-0.381-4.854c-0.755-1.612-2.04-2.758-3.714-3.315c-0.43-0.143-0.878-0.233-1.337-0.269 c3.148-0.301,5.979-1.424,8.436-3.351c2.793-2.19,4.977-5.275,6.493-9.169c1.452-3.735,2.188-8.16,2.188-13.154 c0-6.659-1.471-12.574-4.373-17.58c-2.924-5.042-7.106-9.001-12.429-11.767C65.457,12.666,59.31,11.285,52.429,11.285 L52.429,11.285z M50.89,75.507c-5.029,0-9.411-0.995-13.024-2.957c-3.585-1.947-6.275-4.661-8.223-8.296 c-1.967-3.67-2.965-8.193-2.965-13.444c0-5.464,1.065-10.218,3.166-14.13c2.091-3.895,4.965-6.827,8.784-8.966 c3.819-2.137,8.435-3.221,13.719-3.221c6.964,0,12.428,1.766,16.239,5.248c3.784,3.46,5.624,8.365,5.624,14.995 c0,4.196-0.64,7.58-1.901,10.058c-1.393,2.734-2.645,2.734-3.117,2.734c-0.399,0-0.548-0.072-0.559-0.078 c0.006-0.001-0.247-0.348-0.247-1.538c0-0.648,0.089-1.892,0.514-4.139l2.516-14.04c0.429-2.486-0.01-4.518-1.301-6.059 c-0.893-1.064-2.591-2.329-5.62-2.329c-2.383,0-4.329,0.758-5.705,2.165c-2.015-1.614-4.861-2.813-8.872-2.813 c-3.941,0-7.504,1.059-10.59,3.148c-3.025,2.048-5.425,4.884-7.135,8.429c-1.675,3.471-2.525,7.452-2.525,11.832 c0,5.482,1.479,9.937,4.395,13.242c3.013,3.414,7.203,5.146,12.454,5.146c2.824,0,5.493-0.685,7.933-2.037 c1.161-0.643,2.249-1.446,3.256-2.402c2.062,2.469,5.428,4.439,10.92,4.439c0.076,0,0.153,0,0.229-0.001 c-0.892,0.16-1.806,0.514-2.728,1.06c-2.097,1.267-4.414,2.247-6.913,2.926C56.701,75.161,53.9,75.507,50.89,75.507L50.89,75.507z M48.461,57.042c-1.47,0-2.064-0.495-2.416-0.925c-0.643-0.783-0.981-2.197-0.981-4.092c0-3.146,0.694-5.656,2.062-7.46 c1.209-1.594,2.637-2.336,4.494-2.336c1.788,0,3.155,0.304,3.155,4.126c0,3.465-0.694,6.231-2.063,8.221 C51.537,56.282,50.226,57.042,48.461,57.042L48.461,57.042z"/></svg>