<svg xmlns="http://www.w3.org/2000/svg" viewBox="0 0 687.29 246.15"><defs><style>.cls-1{fill:#f5f5f5;}</style></defs><title>Recurso 13</title><g id="Capa_2" data-name="Capa 2"><g id="Capa_6" data-name="Capa 6"><path class="cls-1" d="M686.62,137.57a95.7,95.7,0,0,1-9.19-21.78l.17-30.64s.51-8.85-8.17-23.83L609,51.79a7.85,7.85,0,0,0-6.64-2.22S543.13,21.15,488.66,6c0,0-79.83-9-132.93-4.94,0,0-77.62-2-141.28,39.15L157.94,70S70.79,85.49,31.47,104.21a51,51,0,0,0-13.62,11.58l-6.12,18.89-10.22,8s-3.4,12.93,0,19.57c1.37,2.66,2,3.78,2.25,4.18l1.5,20.84-2.39,3.24a5,5,0,0,0,1.88,5.79c3.23,2.55,24,15.83,50.89,11.4l4.09-.68s10,36.59,52.59,35.4c0,0,40.17,2.39,48.68-36.59l206.3-1.36,33-.34,7.83-.34s32,10.89,72.51,1.87c0,0,11.41,42.38,50.9,40.34,0,0,50.55,5.44,58.38-48,0,0,2.21,2.21,8.51,3.57,0,0,47.32.34,75.74-15.66,0,0,9.88-7.15,10-17.36C684.24,168.55,689,167.19,686.62,137.57ZM347.17,168.43a6.25,6.25,0,0,1-3.35,5.64,5.61,5.61,0,0,1-3,.87h-.39a6.53,6.53,0,0,1-5.55-3.26,7.57,7.57,0,0,1-.76-3.25v-.1a6.56,6.56,0,0,1,3.16-5.55,7.11,7.11,0,0,1,3.35-.86,6.43,6.43,0,0,1,5.26,2.68,6.23,6.23,0,0,1,1.24,3.73Zm51-90.35a38.49,38.49,0,0,1-6.89,22.11q-4.21,6.14-16.08,17.51-1.14,1.06-11.1,11.87-11.1,12-15.21,16.27H333.3q23.06-24.21,34.83-35.5,10.92-10.44,14.45-15.41a29,29,0,0,0,5.36-16.85V77q0-12.24-9.57-21a33.15,33.15,0,0,0-23-8.61h-.19a32.64,32.64,0,0,0-22.58,8.42q-9.39,8.52-9.38,20.48H313.1q0-16.17,12.35-27.66a42.16,42.16,0,0,1,29.76-11.48h.19a42.69,42.69,0,0,1,30.15,11.67Q398.18,60.58,398.18,77Z"/></g></g></svg>