<svg xmlns="http://www.w3.org/2000/svg"  viewBox="0 0 100 100" width="200px" height="200px" baseProfile="basic"><path d="M24.583,92.5c-7.628,0-13.833-6.205-13.833-13.833V27.333c0-7.628,6.205-13.833,13.833-13.833h10.532	l2.315-2.115c1.212-1.201,2.861-1.885,4.57-1.885h16.236c0.59,0,1.177,0.08,1.746,0.238c0.88,0.232,1.771,0.7,2.511,1.338	l2.802,2.424h10.621c7.628,0,13.833,6.205,13.833,13.833v51.334c0,7.628-6.205,13.833-13.833,13.833H24.583z" opacity=".35"/><path fill="#f2f2f2" d="M22.583,90.5c-7.628,0-13.833-6.205-13.833-13.833V25.333c0-7.628,6.205-13.833,13.833-13.833h10.532	l2.315-2.115c1.212-1.201,2.861-1.885,4.57-1.885h16.236c0.59,0,1.177,0.08,1.746,0.238c0.88,0.232,1.771,0.7,2.511,1.338	l2.802,2.424h10.621c7.628,0,13.833,6.205,13.833,13.833v51.334c0,7.628-6.205,13.833-13.833,13.833H22.583z"/><path fill="#707cc0" d="M73.917,84H22.583c-4.05,0-7.333-3.284-7.333-7.333V25.333c0-4.05,3.284-7.333,7.333-7.333h51.333	c4.05,0,7.333,3.284,7.333,7.333v51.333C81.25,80.716,77.966,84,73.917,84z"/><path fill="#d9eeff" d="M35.708,19.153h24.897L48.679,60.478L35.708,19.153z"/><path fill="#2b59a1" d="M40.001,14h16.236l0.035,10.939H40.037L40.001,14z"/><polygon fill="#40396e" points="48.25,30.833 39.6,22.818 56.9,22.818"/><polygon fill="#40396e" points="55.413,41.302 48.27,25.568 41.126,41.302 48.27,61.318"/><path fill="#9aa2e6" d="M26.212,25.568c3.197-2.493,9.538-7.693,9.538-7.693l15.358,48.708L23.247,37.074l7.509-6.943	L26.212,25.568z"/><path fill="#707cc0" d="M73.917,18H60.704L46.34,66.583V84h16.577h7.333h3.667c4.05,0,7.333-3.284,7.333-7.333V25.333	C81.25,21.284,77.966,18,73.917,18z"/><path fill="#40396e" d="M73.917,18H60.704L46.34,66.583V84h16.577h7.333h3.667c4.05,0,7.333-3.284,7.333-7.333	V25.333C81.25,21.284,77.966,18,73.917,18z" opacity=".35"/><circle cx="51.281" cy="70.375" r="2.5" fill="#40396e"/><path fill="#9aa2e6" d="M70.481,25.568c-3.197-2.493-9.731-7.693-9.731-7.693L46.34,66.583l27.106-29.509l-7.509-6.943	L70.481,25.568z"/><polygon fill="#70bfff" points="48.235,22.818 40,31.5 35.5,18.125 40.016,14"/><polygon fill="#70bfff" points="48.235,22.818 56.75,31.375 60.875,18 56.25,14"/><path fill="#3f396e" d="M73.917,85.5H22.583c-4.87,0-8.833-3.963-8.833-8.833V25.333c0-4.87,3.963-8.833,8.833-8.833h12.472	l3.851-3.517c0.273-0.297,0.663-0.483,1.096-0.483h16.236c0.141,0,0.276,0.02,0.406,0.056c0.211,0.056,0.412,0.158,0.588,0.31	l4.202,3.635h12.483c4.87,0,8.833,3.963,8.833,8.833v51.334C82.75,81.537,78.787,85.5,73.917,85.5z M22.583,19.5	c-3.217,0-5.833,2.616-5.833,5.833v51.334c0,3.217,2.616,5.833,5.833,5.833h51.334c3.217,0,5.833-2.616,5.833-5.833V25.333	c0-3.217-2.616-5.833-5.833-5.833h-13.01c-0.34,0-0.669-0.115-0.935-0.326c-0.072-0.044-0.143-0.094-0.208-0.15L55.691,15.5H40.598	l-3.831,3.499c-0.075,0.068-0.155,0.128-0.241,0.18c-0.264,0.208-0.591,0.321-0.928,0.321H22.583z"/></svg>