<svg xmlns="http://www.w3.org/2000/svg"  viewBox="0 0 100 100" width="200px" height="200px"><path d="M33.966,99.523c-1.382,0-2.722-0.283-3.982-0.842c-3.94-1.752-11.257-6.818-16.033-21.098	c-4.775-14.277-1.981-22.726,0.108-26.491c1.197-2.155,3.158-3.777,5.522-4.568l0.558-0.187c-1.757-9.264-0.739-17.278,3.041-23.875	c4.278-7.466,11.533-11.657,16.896-13.091c1.369-0.366,6.286-1.562,12.058-1.562c9.772,0,14.731,3.465,17.246,6.995	c6.219,2.337,10.693,6.187,13.316,11.465c3.655,7.353,2.699,15.562,1.353,20.945c0.995,0.777,1.852,1.763,2.514,2.918	c2.021,3.528,2.187,8.464,0.433,12.882c-1.483,3.736-4.247,6.7-7.583,8.131c-0.264,0.114-0.53,0.217-0.798,0.311	C75.39,84.914,64.488,94.648,52,94.648c-1.931,0-3.822-0.219-5.664-0.652c-1.047,1.602-2.597,2.801-4.444,3.419l-4.755,1.59	C36.104,99.35,35.039,99.523,33.966,99.523z" opacity=".35"/><path fill="#f2f2f2" d="M31.966,97.523c-1.382,0-2.722-0.283-3.982-0.842c-3.94-1.752-11.257-6.818-16.033-21.098	c-4.775-14.277-1.981-22.726,0.108-26.491c1.197-2.155,3.158-3.777,5.522-4.568l0.558-0.187c-1.757-9.264-0.739-17.278,3.041-23.875	c4.278-7.466,11.533-11.657,16.896-13.091c1.369-0.366,6.286-1.562,12.058-1.562c9.772,0,14.731,3.465,17.246,6.995	c6.219,2.337,10.693,6.187,13.316,11.465c3.655,7.353,2.699,15.562,1.353,20.945c0.995,0.777,1.852,1.763,2.514,2.918	c2.021,3.528,2.187,8.464,0.433,12.882c-1.483,3.736-4.247,6.7-7.583,8.131c-0.264,0.114-0.53,0.217-0.798,0.311	C73.39,82.914,62.488,92.648,50,92.648c-1.931,0-3.822-0.219-5.664-0.652c-1.047,1.602-2.597,2.801-4.444,3.419l-4.755,1.59	C34.104,97.35,33.039,97.523,31.966,97.523z"/><path fill="#ffc7a3" d="M63.355,79.022c4.695-3.801,5.521-9.093,7.729-15.826c1.849,1.731,4.855,1.264,7.241-1.466	c2.595-2.969,3.284-7.274,1.541-9.613c-1.393-1.869-3.763-2.092-6.044-0.522c0.634-4.087,0.259-7.983,0.259-11.275	c0-15.244-10.341-24.455-23.915-24.455s-23.914,9.212-23.914,24.456c0,3.351-0.265,7.329,0.53,11.497	c-0.53-1.98-4.337-1.623-5.792,0.33c-1.743,2.34-1.052,6.644,1.541,9.613c2.595,2.969,2.851,0.515,7.143,0.932	c0.007-0.009,0.012-0.02,0.019-0.029c1.594,7.3,3.577,15.134,7.794,19.08l8.182,4.321h8.81L63.355,79.022z"/><path fill="#40396e" d="M24.412,48.983c0,0,3.485-2.827,5.377-5.446c0,0,32.496-1.989,35.097-18.544	c2.801-17.819-19.274-14.462-25.519-12.791C33.893,13.665,16.26,21.866,24.412,48.983z"/><path fill="#40396e" d="M62.213,27.963c0,0-0.459,4.735,8.36,15.57l3.307,4.137l1.854,0.897c0,0,10.677-24.939-12.015-31.732	L62.213,27.963z"/><path fill="#40396e" d="M37.681,29.689c6.958,0,18.015-0.001,24.973-0.001c3.496,0,6.15,2.774,6.512,6.251	c1.346,12.921,3.167,15.427,3.167,15.427s3.578-2.597,1.219-0.806c0.794-4.168,1.159-6.887,1.159-10.238	c0-15.244-10.97-25.084-24.543-25.084s-24.543,9.84-24.543,25.084c0,3.351-0.567,4.493,0.227,8.661	c-2.358-1.791,2.362,1.634,2.362,1.634s1.182-2.5,2.956-14.678C31.673,32.48,34.186,29.689,37.681,29.689z"/><circle cx="38.804" cy="53.881" r="2.75" fill="#40396e"/><circle cx="60.818" cy="53.881" r="2.75" fill="#40396e"/><path fill="#739f4d" d="M18.803,73.395c3.874,11.582,9.249,15.013,11.691,16.098c0.723,0.321,1.543,0.347,2.297,0.095	l4.446-1.487c1.007-0.337,1.553-1.419,1.219-2.417l-2.98-8.908c-0.334-0.998-1.421-1.534-2.428-1.197l-4.719,1.579	c0,0-1.169,0.473-3.284-5.851s-0.867-6.439-0.867-6.439l4.741-1.586c1.007-0.337,1.553-1.419,1.219-2.417l-3.01-9.116	c-0.334-0.998-1.421-1.534-2.428-1.197l-4.469,1.495c-0.753,0.252-1.393,0.766-1.777,1.458	C17.157,55.84,14.928,61.814,18.803,73.395z"/><path fill="none" stroke="#40396e" stroke-linecap="round" stroke-linejoin="round" stroke-miterlimit="10" stroke-width="3" d="M26.852,50C26.852,50,26.852,50,26.852,50c-0.476-0.824-1.485-1.225-2.429-0.91l-4.78,1.599c-0.806,0.269-1.49,0.819-1.901,1.559	c-1.387,2.499-3.771,8.888,0.373,21.274c4.144,12.387,9.893,16.057,12.504,17.217c0.773,0.344,1.651,0.371,2.456,0.101l4.755-1.591	c1.077-0.36,1.661-1.518,1.303-2.585l-1.869-5.588c3.538,3.181,7.949,5.071,12.735,5.071c11.083,0,20.162-10.123,21.013-22.983	c0.083,0.04,0.161,0.085,0.248,0.12c2.773,1.118,6.181-0.864,7.691-4.669c1.51-3.805,0.702-8.398-2.189-8.843	c-1.145-0.176-2.407,0.156-3.212,0.785"/><polygon fill="#40396e" points="76.114,47.577 74.711,50.745 72.681,48.567 73.702,46.447"/></svg>