<svg xmlns="http://www.w3.org/2000/svg"  viewBox="0 0 100 100" width="200px" height="200px"><circle cx="59" cy="36" r="14" opacity=".35"/><path d="M33.5,95c-3.584,0-6.5-2.916-6.5-6.5v-9c0-3.556,2.87-6.453,6.414-6.5 l2.232-14.664l-8.945-11.181c-1.436-1.795-2.445-3.834-3.002-6.061l1.318-1.719c-0.189,0.14-0.653-0.204-0.86-0.084 c-0.997,0.576-1.348,1.331-3.152,1.466c-1.127,0.084-2.229-0.055-3.21-0.616l-6.997-3.999C8.778,34.988,6,32.826,6,30.5v-16 C6,10.916,8.916,8,12.5,8h7c2.346,0,4.405,1.249,5.548,3.117c0.856-0.451,1.775-0.792,2.735-1.005 c0.043-0.01,0.087-0.019,0.131-0.027c0.755-0.146,1.515-0.221,2.257-0.221c5.156,0,9.292,3.387,11.064,9.059 c0.012,0.039,4.145,14.501,4.145,14.501l6.601,8.067l11.531,1.921c4.305,0.718,7.313,3.849,9.791,7.442L88.522,73H90.5 c3.584,0,6.5,2.916,6.5,6.5v9c0,3.584-2.916,6.5-6.5,6.5H33.5z" opacity=".35"/><path fill="#f2f2f2" d="M88.5,71h-0.587L72.186,48.195c-1.309-1.898-3.02-3.472-4.971-4.651C69.555,41.04,71,37.689,71,34 c0-7.72-6.28-14-14-14c-6.737,0-12.375,4.784-13.702,11.132c-0.578-2.021-4.051-14.174-4.062-14.21 c-1.772-5.672-5.909-9.059-11.064-9.059c-0.742,0-1.502,0.075-2.257,0.221c-0.044,0.008-0.087,0.018-0.131,0.027 c-0.96,0.213-1.879,0.554-2.735,1.005C21.905,7.249,19.846,6,17.5,6h-7C6.916,6,4,8.916,4,12.5v16 c0,2.326,1.255,4.489,3.275,5.644l6.997,3.999C15.253,38.703,16.369,39,17.5,39c1.142,0,2.268-0.303,3.265-0.879 c0.206-0.12,0.404-0.25,0.593-0.39l0.341,1.364c0.557,2.227,1.566,4.265,3.002,6.061l8.945,11.181L31.414,71 C27.87,71.047,25,73.944,25,77.5v9c0,3.584,2.916,6.5,6.5,6.5h57c3.584,0,6.5-2.916,6.5-6.5v-9C95,73.916,92.084,71,88.5,71z"/><rect width="12" height="6" x="15" y="18" fill="#d47f56"/><polygon fill="#9aa2e6" points="16,31 12,28 12,14 16,14"/><circle cx="57" cy="34" r="7.5" fill="#ffc7a3"/><path fill="#96c362" d="M33,85v-6h4c0.741,0,1.372-0.542,1.483-1.274l3.5-23c0.063-0.414-0.05-0.835-0.312-1.163 L29.876,38.818L25.121,19.8c-0.21-0.84-0.075-1.709,0.381-2.446c0.455-0.736,1.171-1.246,2.017-1.433 c0.229-0.051,0.462-0.077,0.694-0.077c1.411,0,2.668,0.95,3.057,2.31l4.788,16.758c0.056,0.197,0.152,0.379,0.281,0.538l9,11 c0.23,0.282,0.556,0.47,0.915,0.53l17.373,2.896l19.639,28.477C83.545,78.758,84.007,79,84.5,79H87v6H33z M62.5,61 c-0.092,0-0.185,0.008-0.277,0.026c-0.567,0.107-1.023,0.53-1.172,1.087l-4,15c-0.12,0.451-0.024,0.931,0.26,1.301 C57.594,78.783,58.034,79,58.5,79h15c0.565,0,1.083-0.318,1.338-0.822c0.256-0.504,0.206-1.109-0.128-1.565l-11-15 C63.424,61.223,62.972,61,62.5,61z"/><circle cx="57" cy="34" r="7.5" fill="none" stroke="#40396e" stroke-miterlimit="10" stroke-width="3"/><polygon fill="none" stroke="#40396e" stroke-linecap="round" stroke-linejoin="round" stroke-miterlimit="10" stroke-width="3" points="58.5,77.5 62.5,62.5 73.5,77.5"/><path fill="none" stroke="#40396e" stroke-linecap="round" stroke-linejoin="round" stroke-miterlimit="10" stroke-width="3" d="M84.5,77.5L66.835,51.885c-1.492-2.164-3.798-3.629-6.391-4.061L46.5,45.5l-9-11l-4.468-15.639 c-1.189-3.805-3.549-4.85-5.838-4.404h0c-2.006,0.446-3.401,2.117-3.621,4.043H17.5v-6h-7v16l7,4v-8h7.25l3.255,13.018 c0.326,1.306,0.931,2.526,1.772,3.577L40.5,54.5l-3.5,23h-5.5v9h57v-9H84.5z"/><rect width="54" height="6" x="33" y="79" fill="#707cc0"/></svg>