<svg xmlns="http://www.w3.org/2000/svg" xmlns:xlink="http://www.w3.org/1999/xlink" viewBox="0 0 100 100" width="200px" height="200px"><path fill="#cee1f4" d="M49.3 13.400000000000006A37.3 37.3 0 1 0 49.3 88A37.3 37.3 0 1 0 49.3 13.400000000000006Z"/><path fill="#895f3f" d="M62.2,85.7c-0.2-4.3-0.5-11.6-0.5-11.6c-0.4-2.1-1.3-3.4-3.3-4c-0.1,0-0.2-0.1-0.3-0.1l-0.6-0.2 c-1.3-0.5-8.6-3.3-8.6-3.3c-0.6-0.1-1-0.5-1.2-1.1c-0.2-0.9-0.3-1.9-0.2-2.9c-1.6,0.6-3.3,1-5,1.4c-1.9,0.2-6-2.3-6-2.3 s-0.1,3-0.2,3.7c-0.2,0.6-0.7,1-1.3,1.1l-7,2.5c-0.8,0.2-1.5,0.5-2.2,0.9c-1.5,1-2.6,2.4-3.1,4.1c0,0-0.2,1.1-0.3,2.1 C32.4,87,48.2,90.8,62.2,85.7L62.2,85.7z"/><path fill="#fdfcef" d="M22.1,76.1c10.2,11,26,14.7,40.1,9.6c-0.2-4.3-0.5-11.5-0.5-11.5c-0.4-2.1-1.3-3.4-3.3-4 c-0.1,0-0.2-0.1-0.3-0.1s-0.3-0.2-0.6-0.2c-0.8-0.3-3.9-1.5-6.2-2.3h-0.1c-2.5,1.3-6.1,3.2-9.3,3.2s-6.5-1.7-9.3-3.2l-0.3,0.1 l-4.4,1.6c-0.8,0.2-1.5,0.5-2.2,0.9c-1.5,1-2.6,2.4-3.1,4.1C22.5,74.2,22.3,75.1,22.1,76.1z"/><path fill="#fff" d="M20.1 56.4A.9.9 0 1 0 20.1 58.199999999999996.9.9 0 1 0 20.1 56.4zM78.9 31.900000000000002A.7.7 0 1 0 78.9 33.300000000000004.7.7 0 1 0 78.9 31.900000000000002z"/><path fill="#f1bc19" d="M76.3 12.7A.9.9 0 1 0 76.3 14.5.9.9 0 1 0 76.3 12.7zM20.6 64A.9.9 0 1 0 20.6 65.80000000000001.9.9 0 1 0 20.6 64zM81.7 11.8A4 4 0 1 0 81.7 19.8 4 4 0 1 0 81.7 11.8z"/><path fill="#78a0cf" d="M85.7 22.900000000000002A1.9 1.9 0 1 0 85.7 26.7A1.9 1.9 0 1 0 85.7 22.900000000000002Z"/><path fill="#fbcd59" d="M76.7 75A1.9 1.9 0 1 0 76.7 78.80000000000001 1.9 1.9 0 1 0 76.7 75zM13.9 60.099999999999994A4 4 0 1 0 13.9 68.1 4 4 0 1 0 13.9 60.099999999999994z"/><path fill="#78a0cf" d="M24.1 86.19999999999999A1.9 1.9 0 1 0 24.1 90A1.9 1.9 0 1 0 24.1 86.19999999999999Z"/><path fill="#fff" d="M75.4 29.2A1.8 1.8 0 1 0 75.4 32.8 1.8 1.8 0 1 0 75.4 29.2zM17.6 49.5A2.5 2.5 0 1 0 17.6 54.5 2.5 2.5 0 1 0 17.6 49.5z"/><path fill="#cbc9bc" d="M54.8,87.8c-0.2,0-0.3-0.1-0.3-0.3v-4.1c0-0.2,0.1-0.3,0.3-0.3s0.3,0.1,0.3,0.3v4.1 C55.1,87.7,55,87.8,54.8,87.8z"/><path fill="#a3754f" d="M54,45.8h-0.3c-1,0-1.2,0.3-1.2-0.3c0.1-1.1-0.1-5.3-0.1-5.5c0-4.4-4.6-8-10.4-8.3l0,0h-0.2l0,0 C36,32,31.4,35.6,31.4,40c0,0.2-0.1,4.5-0.1,5.5c0,0.6-0.2,0.2-1.2,0.3h-0.4c-1,0-1.8,0.7-2.1,1.6c0.1,0.1,0.6,3.7,1.4,5.2 c0.4,0.8,1.1,0.9,1.8,1.4c0.3,0.2,0.5,0.6,0.6,1c0.5,1.6,1.4,3,2.7,4.1c0.6,0.6,5.1,4.3,7.8,4.5c3.4-0.1,7.2-3.9,7.8-4.5 c1.2-1.1,2.2-2.5,2.7-4c0.1-0.4,0.3-0.8,0.6-1c0.7-0.5,1.4-0.6,1.8-1.4c0.8-1.4,1.3-5.1,1.4-5.2C55.9,46.5,55,45.8,54,45.8z"/><path fill="#a3754f" d="M41.8,66.4c2,0,7.7-2.7,9.8-5.5c1.4-1.9,0.8-4.6,0.8-8.2c0-8.7,3.3-19.3-10.5-19.3 S31.3,44,31.3,52.7c0,3.6-0.6,6.2,0.8,8.2C34.2,63.6,39.8,66.4,41.8,66.4z"/><defs><path id="OB37z4GUgXssxaISas83la" d="M41.8,66.4c2,0,7.7-2.7,9.8-5.5c1.4-1.9,0.8-4.6,0.8-8.2c0-8.7,3.3-19.3-10.5-19.3S31.3,44,31.3,52.7 c0,3.6-0.6,6.2,0.8,8.2C34.2,63.6,39.8,66.4,41.8,66.4z"/></defs><clipPath id="OB37z4GUgXssxaISas83lb"><use overflow="visible" xlink:href="#OB37z4GUgXssxaISas83la"/></clipPath><g clip-path="url(#OB37z4GUgXssxaISas83lb)"><path fill="#512c2b" d="M52.3,48.8c0,0-0.4,5.5-1.9,6.5c-1.1,0.7-2.2,1.2-3.5,1.5H36.7c-1.2-0.3-2.4-0.8-3.5-1.5 c-1.5-1-1.9-6.5-1.9-6.5c-0.4,3.1-0.5,6.2-0.2,9.2c0.1,1.1,0.5,2.2,1.2,3.1c0,0,5.9,6,6.3,6.3c1.1,0.2,2.1,0.2,3.2,0.1 c1.1,0.1,2.1,0.1,3.2-0.1c0.5-0.3,6.9-6.1,6.9-6.1c0.6-1.1,0.9-2.2,1.1-3.5C53.1,54.8,52.9,51.8,52.3,48.8L52.3,48.8z"/></g><path fill="#512c2b" d="M41.8 53.9c.7 0 1.3-.3 1.8-.8 0 0 0-.1 0-.2 0 0 0 0 0 0l0 0c0 0-.1 0-.2 0 0 0 0 0 0 0-.9.8-2.3.8-3.2 0 0 0-.1 0-.1 0 0 0-.1 0-.1 0 0 0 0 .1 0 .2 0 0 0 0 0 0C40.5 53.6 41.2 53.9 41.8 53.9zM39.8 45.5l.4-.8c-1.9-.4-3.8-.4-5.7.2l.5.8C36.6 45.2 38.2 45.2 39.8 45.5zM48.9 45.5l.4-.8c-1.9-.4-3.8-.4-5.7.2l.5.8C45.8 45.2 47.4 45.2 48.9 45.5zM37.2 46.7c-.4 0-.8.3-1 .7.1 0 .1 0 .2 0 .4 0 .7.4.6.8 0 .3-.3.6-.6.6-.1 0-.2 0-.3-.1.1.6.6 1.1 1.2 1.1.9-.2 1.4-1.1 1.2-2C38.2 47.3 37.8 46.9 37.2 46.7L37.2 46.7zM46.7 46.7c-.4 0-.7.2-.9.5.1 0 .2 0 .2 0 .4 0 .7.3.7.7 0 .4-.3.7-.6.7 0 0 0 0 0 0-.2 0-.4-.1-.5-.3.2.7.9 1.1 1.6.8.7-.2 1.1-.9.8-1.6C47.7 47.1 47.3 46.7 46.7 46.7zM47.2 56.6c0 0 0-.1 0-.2 0 0 0 0 0 0l0 0c0 0-.1 0-.2 0 0 0 0 0 0 0-1.5 1-3.3 1.5-5.1 1.4-1.8.1-3.6-.4-5.1-1.4h-.1c0 0-.1 0-.1 0 0 0 0 .1 0 .2 0 0 0 0 0 0C39.9 58.7 44.1 58.7 47.2 56.6L47.2 56.6zM43.3 61.8c.1 0 .1-.1.1-.2s0-.2-.1-.2h-2.6c-.1 0-.1.1-.1.2s0 .2.1.2H43.3z"/><path fill="#895d3d" d="M54.1 50.5l-.6-.1.2-1.8-1 .4-.2-.6L54 48c.1 0 .2 0 .3 0 .1.1.1.2.1.3L54.1 50.5zM30 50.2l-.3-2.3c0-.1 0-.2.1-.3.1-.1.2-.1.3 0l1.5.6-.2.6-1-.4.2 1.8L30 50.2z"/><path fill="#472b29" d="M31.4 56.6C31.3 56.6 31.3 56.6 31.4 56.6c-.1 0-.2-.1-.2-.2l.2-8.6c0-.1.1-.2.2-.2 0 0 0 0 0 0 .1 0 .2.1.2.2l-.2 8.6C31.5 56.5 31.5 56.6 31.4 56.6zM52.6 56.6c-.1 0-.2-.1-.2-.2l-.2-8.6c0-.1.1-.2.2-.2.1 0 .2.1.2.2l.2 8.6C52.8 56.5 52.7 56.6 52.6 56.6 52.6 56.6 52.6 56.6 52.6 56.6zM42 65.7c-2.1 0-5.6-2.4-5.8-2.5-.1-.1-.1-.2-.1-.3.1-.1.2-.1.3-.1 0 0 3.9 2.6 5.7 2.4 1.9-.2 5-2.2 5-2.3.1-.1.3 0 .3.1.1.1 0 .3-.1.3-.1.1-3.2 2.1-5.2 2.3C42.2 65.7 42.1 65.7 42 65.7z"/><path fill="#fdfcef" d="M67.6,71.7c0,0.9-0.7,1.7-1.6,1.7s-1.7-0.7-1.7-1.6S65,70,65.9,70c0,0,0,0,0,0 C66.8,70,67.5,70.7,67.6,71.7C67.6,71.6,67.6,71.6,67.6,71.7z"/><path fill="#472b29" d="M65.9,73.8c-1.2,0-2.2-1-2.2-2.1c0-0.6,0.2-1.1,0.6-1.5c0.4-0.4,0.9-0.6,1.5-0.6 c1.2,0,2.2,0.9,2.2,2.1c0,0,0,0,0,0C68.1,72.8,67.1,73.8,65.9,73.8C65.9,73.8,65.9,73.8,65.9,73.8z M65.9,70.5 C65.9,70.5,65.9,70.5,65.9,70.5c-0.7,0-1.2,0.5-1.2,1.2c0,0.6,0.5,1.2,1.2,1.2c0,0,0,0,0,0c0.3,0,0.6-0.1,0.8-0.3 c0.2-0.2,0.3-0.5,0.3-0.8c0,0,0,0,0,0v0C67,71,66.5,70.5,65.9,70.5z"/><path fill="#fdfcef" d="M73.7,66.7c0,1.5-1.2,2.8-2.7,2.8s-2.8-1.2-2.8-2.7s1.2-2.8,2.7-2.8c0,0,0,0,0.1,0 C72.4,64,73.6,65.2,73.7,66.7C73.7,66.7,73.7,66.7,73.7,66.7z"/><path fill="#472b29" d="M70.9,70c-1.8,0-3.2-1.4-3.2-3.2c0-1.8,1.4-3.3,3.2-3.3c0.9,0,1.7,0.3,2.3,0.9c0.6,0.6,1,1.4,1,2.3 l-0.5,0l0.5,0C74.2,68.5,72.8,69.9,70.9,70C71,70,70.9,70,70.9,70z M71,64.5C71,64.5,70.9,64.5,71,64.5c-1.3,0-2.3,1-2.3,2.3 c0,1.2,1.1,2.2,2.3,2.2c1.2,0,2.2-1,2.2-2.3c0,0,0,0,0,0v0c0-0.6-0.2-1.1-0.7-1.5C72.1,64.7,71.5,64.5,71,64.5z"/><path fill="#fdfcef" d="M90.9,45.4c0.1-0.3,0.1-0.6,0.1-0.9c0-3.1-2.6-5.5-5.7-5.5c-2.1-3.7-6.7-5-10.4-3 c-1.3,0.7-2.4,1.9-3.1,3.2c-0.4-0.2-0.7-0.3-1.1-0.3c-1.4,0-2.6,1.1-2.6,2.5c0,0,0,0,0,0c0,0.2,0,0.4,0.1,0.6 c-0.5-0.1-1-0.1-1.4-0.1c-4.1-0.1-7.6,3.3-7.6,7.4c0,2.7,1.5,5.2,3.9,6.4c0,0,0,0.1,0,0.1c0,3.1,2.6,5.6,5.7,5.5 c1.6,0,3.1-0.7,4.2-1.8c2.8,3.2,7.7,3.5,10.9,0.7c0.5-0.4,0.9-0.8,1.2-1.3c0.9,0.4,1.9,0.5,2.8,0.5c4.1,0.1,7.6-3.3,7.6-7.4 C95.4,49.2,93.7,46.5,90.9,45.4z"/><path fill="#472b29" d="M78.7,62.7c-0.2,0-0.4,0-0.6,0c-2-0.1-3.9-1-5.3-2.4c-1.1,1-2.6,1.6-4.2,1.6c0,0-0.1,0-0.1,0 c-3.3,0-6-2.6-6.1-5.9c-2.4-1.4-3.9-3.9-3.9-6.7c0.1-4.4,3.7-8,8.1-7.9c0.3,0,0.6,0,0.8,0c0,0,0,0,0,0s0,0,0,0 c0-0.8,0.3-1.6,0.9-2.1c0.6-0.6,1.4-0.9,2.2-0.9c0.3,0,0.6,0,0.9,0.1c0.7-1.3,1.8-2.3,3.1-3c3.8-2.1,8.7-0.8,10.9,2.9 c3.2,0.1,5.8,2.7,5.9,6c0,0.2,0,0.4,0,0.6c2.7,1.3,4.4,4,4.5,7.1c-0.1,4.4-3.8,8-8.1,7.9c-0.9,0-1.8-0.1-2.6-0.4 c-0.3,0.4-0.7,0.8-1.1,1.1C82.6,62,80.7,62.7,78.7,62.7z M72.9,59.1C72.9,59.1,72.9,59.1,72.9,59.1c0.1,0,0.3,0.1,0.4,0.2 c1.3,1.4,3,2.3,4.9,2.4c1.9,0.1,3.8-0.5,5.2-1.8c0.4-0.4,0.8-0.8,1.1-1.3c0.1-0.2,0.4-0.3,0.6-0.2c0.9,0.3,1.8,0.5,2.7,0.5 c3.8,0,7-3.1,7-6.9c0-2.7-1.7-5.2-4.2-6.3c-0.2-0.1-0.3-0.3-0.3-0.6c0.1-0.3,0.1-0.6,0.1-0.8c0-2.8-2.3-5-5.1-5c0,0-0.1,0-0.1,0 c-0.2,0-0.3-0.1-0.4-0.3c-1.9-3.5-6.3-4.7-9.7-2.8c-1.3,0.7-2.3,1.7-2.9,3c-0.1,0.2-0.4,0.3-0.7,0.2c-0.3-0.1-0.6-0.2-0.9-0.2 c-0.5,0-1.1,0.2-1.5,0.6c-0.4,0.4-0.6,0.9-0.6,1.5c0,0,0,0,0,0c0,0.2,0,0.3,0.1,0.5c0.1,0.2,0,0.3-0.1,0.5s-0.3,0.2-0.5,0.2 c-0.4-0.1-0.9-0.1-1.3-0.1c0,0-0.1,0-0.1,0c-3.8,0-7,3.1-7,6.9c0,2.5,1.4,4.8,3.6,6c0.2,0.1,0.3,0.3,0.3,0.4v0.1 c0,2.8,2.3,5,5.1,5c0,0,0,0,0.1,0c1.5,0,2.8-0.6,3.8-1.7C72.6,59.2,72.8,59.1,72.9,59.1z"/><path fill="#e1e0d8" d="M34.2,67l-3,1.1l6,7.6l5.2-5.5C42.4,70.2,34.6,68.5,34.2,67z"/><path fill="#e1e0d8" d="M49.8,67l2.6,1.5l-5.7,7.2l-5.2-5.5C41.5,70.2,49.4,68.5,49.8,67z"/><path fill="#603535" d="M50.3,55.3c-2.1,1.1-2.3-1.1-4.6-1.7c-1.5-0.3-3,0.2-3.8,1.5c-1-1.1-2.4-1.7-3.8-1.5 c-2.3,0.6-2.5,2.8-4.6,1.7c-0.2,0,5.7,5.9,8.4,1.8C44.6,61.2,50.5,55.3,50.3,55.3z"/><path fill="#472b29" d="M47,88.4c-10.4,0-17.6-4.8-25.2-11.9c-0.1-0.1-0.2-0.3-0.2-0.4c0-0.4,1.5-5.2,3.5-6.4 c0.7-0.4,1.5-0.8,2.4-1l7.1-2.6c0.5-0.1,0.8-0.4,1-0.8c0-0.2,0.1-0.4,0.1-0.7c-1.5-0.9-2.7-1.9-3.8-3.2c-1.3-1.6-1.2-3.6-1-6.1 l0-0.4c0-0.2-0.2-0.4-0.4-0.6c-0.2-0.1-0.4-0.3-0.6-0.4c-0.5-0.3-1-0.5-1.4-1.2c-0.8-1.7-1.3-3.5-1.4-5.4c0-0.1,0-0.1,0-0.2 c0.3-1.1,1.4-1.9,2.6-1.9H30c0.2,0,0.3,0,0.5,0c0-1.4,0-2.9,0.2-4.3l0-1.1c0-4.7,4.8-8.6,11-8.8l0.2,0c6.2,0.2,11,4.1,11,8.8v0.6 c0.3,1.5,0.4,3.2,0.3,4.8c0.2,0,0.3,0,0.5,0l0.3,0c1.2,0,2.2,0.8,2.6,1.9c0,0.1,0,0.1,0,0.2c-0.2,1.9-0.6,3.7-1.4,5.3 c-0.4,0.7-0.9,1-1.4,1.3c-0.2,0.1-0.4,0.2-0.6,0.4c-0.1,0.1-0.2,0.2-0.3,0.3l0,0.8c0.1,2.3,0.2,4.3-1,5.9c-1.2,1.4-2.6,2.6-4.2,3.5 c0,0.2,0.1,0.4,0.1,0.5c0.2,0.4,0.5,0.7,0.9,0.8c0.3,0.1,7.5,2.8,8.7,3.3l0.9,0.4c2.1,0.6,3.2,1.9,3.6,4.4c0,0,0,0,0,0.1 c0,0.4,0.5,9.9,0.5,11.2c0,0.2-0.1,0.4-0.3,0.5C58.4,88,51.8,88.4,47,88.4z M22.7,76C30,82.8,37,87.4,47,87.4 c4.6,0,10.8-0.4,14.7-2.2c-0.1-2-0.5-10.2-0.5-10.8c-0.4-2.1-1.2-3.1-3-3.6l-1-0.4c-1.2-0.5-8.6-3.2-8.7-3.3 c-0.7-0.2-1.2-0.7-1.5-1.4c-0.1-0.4-0.2-0.8-0.3-1.2c0-0.2,0.1-0.4,0.3-0.5c1.6-0.8,3-2,4.2-3.4c0.9-1.3,0.9-3,0.7-5.2l0-0.9 c0,0,0-0.1,0-0.1c0.1-0.4,0.3-0.7,0.7-1c0.2-0.2,0.5-0.3,0.7-0.4c0.4-0.2,0.7-0.4,1-0.8c0.7-1.5,1.2-3.2,1.3-4.9 c-0.2-0.7-0.9-1.1-1.6-1.1h-0.4c-0.3,0-0.6,0-0.9,0.1c-0.2,0-0.3,0-0.4-0.1c-0.1-0.1-0.2-0.3-0.2-0.4c0.1-1.7,0-3.5-0.3-5.2l0-0.6 c0-4.2-4.4-7.6-10-7.8l-0.2,0c-5.6,0.2-10,3.6-10,7.8v1.1c-0.2,1.6-0.3,3.2-0.2,4.7c0,0.1-0.1,0.3-0.2,0.4s-0.3,0.1-0.4,0.1 c-0.3,0-0.6-0.1-0.9-0.1h-0.4c-0.7,0-1.3,0.5-1.6,1.1c0.2,1.7,0.6,3.4,1.3,4.9c0.2,0.4,0.5,0.6,0.9,0.8c0.2,0.1,0.5,0.3,0.7,0.4 c0.4,0.3,0.7,0.8,0.7,1.3l0,0.5c-0.1,2.3-0.2,4.1,0.8,5.5c1.1,1.3,2.4,2.3,3.8,3.1c0.2,0.1,0.3,0.3,0.3,0.5c0,0.4-0.1,0.8-0.2,1.1 c-0.3,0.8-0.9,1.4-1.7,1.5l-7.1,2.6c-0.8,0.2-1.5,0.5-2.1,0.9C24.2,71.5,23,75,22.7,76z"/><path fill="#603535" d="M51.9,35.5c1.2,0.3,2.1,1.4,2.1,2.6c-0.1,2.2-1.6,11.7-1.6,11.7l-3.1-9.8L51.9,35.5L51.9,35.5z"/><path fill="#512c2b" d="M40.3,29.3l-1.2-1.6c0,0,13.1-1.5,13,5.7c0.2,5.3-3.3,10.1-8.5,11.5l0.7-2.6l-5.1,2.7l0.6-1.5 l-4.3,1.5l1.5-3.5L33.3,43c-0.9,2.2-1.5,4.5-2,6.8c0,0-3-10.1-1.1-10.9l-0.7-0.4l0.9-1.8L29,36.2l1.2-1.7l-0.5-0.7l2.6-1.5 l-1.3-0.7C30.9,31.6,35.2,28,40.3,29.3z"/><path fill="#78a0cf" d="M51.1 45.6L51.1 45.6H51h-.2-1.1c-.6 0-1.3 0-2 0-1 0-1.9.1-2.9.2h-.3c-.7.1-1.5.3-2.2.5-.5.2-1.1.3-1.6.1l-.2-.1c-.2-.1-.4-.2-.6-.3h-.5c-.8-.2-1.7-.3-2.5-.4-.6-.1-1.2-.1-1.8-.1h-.7-.8l-1.8.1c-.4 0-1 .1-1.2.3-.1.1-.1.1-.1.2 0 .3.1.5.1.7.1.3.1.5.1.8 0 .2.3.4.8.6l.3.2c.1.1.2.2.2.3v.1l.2.3c.1.2.2.4.3.5.1.2.3.3.4.4.2.1.4.2.6.2 1.5.3 3.1.4 4.7.3.8 0 1.6-.6 1.8-1.4.1-.2.2-.5.3-.7s.1-.3.2-.4c.1-.2.2-.3.4-.3h.5c.4 0 .5 0 .6.5l.1.2c.2.4.3.8.5 1.2.2.4.6.7 1 .8.2.1.4.1.6.1.4 0 .7 0 1.1 0 1.1 0 2.1-.1 3.2-.3.8 0 1.5-.5 1.8-1.3.1-.2.3-.5.5-.6.1-.1.3-.1.4-.2.4-.2.6-.3.7-.4h.1c.1 0 .1-.1.1-.1 0-.2 0-.3 0-.5 0-.4.1-.8.1-1.1S51.8 45.6 51.1 45.6zM45.4 46.2c.4 0 .8-.1 1.2-.1h.5.8c.2 0 .3 0 .5 0 .5 0 .9.1 1.4.1s.6.3.6.8c0 .7-.2 1.4-.5 2-.1.2-.2.3-.4.4-.6.3-1.2.5-1.9.5-.8 0-1.7 0-2.5 0h-.4c-.5 0-1-.3-1.3-.8-.3-.6-.5-1.3-.5-2 0-.2.2-.4.4-.5.6-.2 1.2-.4 1.8-.4L45.4 46.2zM40 47.4c0 .7-.3 1.5-.8 2.1-.2.3-.6.5-.9.5C37.9 50 37.4 50 37 50l0 0c-.9 0-1.9-.1-2.8-.3-.3-.1-.6-.2-.8-.3-.2-.1-.3-.2-.4-.3-.3-.6-.4-1.3-.4-2 0-.5.1-.7.6-.8s1-.1 1.5-.1h.7c1.3 0 2.6.2 3.9.5l.3.1C40 46.8 40.1 46.9 40 47.4zM73.3 49.9L70.2 54.1 73.3 54.1 74.2 57.1 77.3 52.9"/><path fill="#472b29" d="M74.2,57.3C74.2,57.3,74.2,57.3,74.2,57.3c-0.1,0-0.2-0.1-0.2-0.2l-0.9-2.8l-2.9,0 c-0.1,0-0.2-0.1-0.2-0.1s0-0.2,0-0.3l3.1-4.2c0.1-0.1,0.2-0.1,0.3-0.1c0.1,0.1,0.1,0.2,0.1,0.3l-2.8,3.8l2.6,0 c0.1,0,0.2,0.1,0.2,0.2l0.8,2.5l2.8-3.8c0.1-0.1,0.2-0.1,0.3-0.1c0.1,0.1,0.1,0.2,0.1,0.3l-3.1,4.2C74.4,57.3,74.3,57.3,74.2,57.3 z"/><path fill="#472b29" d="M73.3,54.3C73.2,54.3,73.2,54.3,73.3,54.3c-0.2-0.1-0.2-0.2-0.1-0.2l1.7-2.3c0-0.1,0.1-0.1,0.2,0 c0.1,0,0.1,0.1,0,0.2l-1.7,2.3C73.4,54.2,73.3,54.3,73.3,54.3z"/><g><path fill="#78a0cf" d="M83.2 49.9L86.3 54.1 83.2 54.1 82.2 57.1 79.2 52.9"/><path fill="#472b29" d="M82.2,57.3c-0.1,0-0.2,0-0.2-0.1l-3.1-4.2c-0.1-0.1-0.1-0.3,0.1-0.3c0.1-0.1,0.3-0.1,0.3,0.1 l2.8,3.8l0.8-2.5c0-0.1,0.1-0.2,0.2-0.2l2.6,0L83,50c-0.1-0.1-0.1-0.3,0.1-0.3c0.1-0.1,0.3-0.1,0.3,0.1l3.1,4.2 c0.1,0.1,0.1,0.2,0,0.3c0,0.1-0.1,0.1-0.2,0.1l-2.9,0l-0.9,2.8C82.4,57.3,82.4,57.3,82.2,57.3C82.3,57.3,82.2,57.3,82.2,57.3z"/></g><path fill="#472b29" d="M83.2,54.3c0,0-0.1,0-0.1-0.1L81.4,52c0-0.1,0-0.2,0-0.2c0.1,0,0.2,0,0.2,0l1.7,2.2 C83.4,54.1,83.3,54.2,83.2,54.3C83.3,54.3,83.2,54.3,83.2,54.3z"/><g><path fill="#fbcd59" d="M78.3 42.1A5.4 5.4 0 1 0 78.3 52.9A5.4 5.4 0 1 0 78.3 42.1Z"/><path fill="#472b29" d="M78.3,53.2c-3.1,0-5.7-2.6-5.7-5.7s2.6-5.7,5.7-5.7c3.1,0,5.7,2.6,5.7,5.7S81.4,53.2,78.3,53.2z M78.3,42.5c-2.8,0-5.1,2.3-5.1,5.1s2.3,5.1,5.1,5.1c2.8,0,5.1-2.3,5.1-5.1S81.1,42.5,78.3,42.5z"/></g><g><path fill="#ef9922" d="M78.3 46L78.8 47 79.9 47.1 79.1 48 79.3 49.1 78.3 48.5 77.3 49.1 77.4 48 76.6 47.1 77.8 47z"/><path fill="#472b29" d="M77.3,49.2C77.2,49.2,77.2,49.2,77.3,49.2c-0.1-0.1-0.2-0.1-0.1-0.2l0.2-1.1l-0.8-0.8 c0,0-0.1-0.1,0-0.2c0-0.1,0.1-0.1,0.1-0.1l1.1-0.1l0.5-1c0.1-0.1,0.2-0.1,0.3,0l0.5,1l1.1,0.1c0.1,0,0.1,0,0.1,0.1 c0,0.1,0,0.1,0,0.2L79.3,48l0.2,1.1c0,0.1,0,0.1-0.1,0.1c0,0-0.1,0-0.2,0l-0.9-0.5L77.3,49.2C77.3,49.2,77.3,49.2,77.3,49.2z M78.3,48.4C78.3,48.4,78.3,48.4,78.3,48.4l0.8,0.4L78.9,48c0,0,0-0.1,0-0.1l0.6-0.6l-0.8-0.1c0,0-0.1,0-0.1-0.1l-0.4-0.8L77.9,47 c0,0-0.1,0.1-0.1,0.1l-0.8,0.1l0.6,0.6c0,0,0.1,0.1,0,0.1l-0.1,0.8L78.3,48.4C78.2,48.4,78.2,48.4,78.3,48.4z"/></g></svg>