<svg xmlns="http://www.w3.org/2000/svg" viewBox="0 0 507.6 679.36"><defs><style>.cls-1{fill:#892d17;}.cls-2{fill:#fff;}.cls-3{fill:#5c1d10;}.cls-4,.cls-5{fill:#424346;stroke:#424346;stroke-miterlimit:10;}.cls-4{stroke-width:0.5px;}</style></defs><title>Recurso 9</title><g id="Capa_2" data-name="Capa 2"><g id="mini_negro" data-name="mini negro"><g id="Capa_3" data-name="Capa 3"><g id="Ponton"><rect class="cls-1" x="487.34" y="401.83" width="19.91" height="80.51"/><rect class="cls-1" x="486.32" y="295.45" width="21.28" height="85.11"/><rect class="cls-1" x="486.32" y="215.11" width="21.28" height="43.57"/><path class="cls-1" d="M0,94.51V169.4H21.28V114.25c94.66,7.75,156.29-91,232.21-92.4C340.28,26.68,392,122,486.32,113.73v55.14H507.6V94C406.32,115.19,349.81,1.83,253.49,0,141.81,8.3,108.11,108,0,94.51Z"/><rect class="cls-1" x="0.36" y="215.11" width="19.91" height="43.57"/><rect class="cls-1" x="0.36" y="295.45" width="19.91" height="85.11"/><rect class="cls-1" x="0.36" y="401.83" width="19.91" height="80.51"/><path class="cls-1" d="M507.26,548.64H487.34c-35.06-.08-59.11,19.51-100.68,35.49h47.49c23.23-7.92,33.19-16.34,53.19-15.32h19.92Z"/><path class="cls-1" d="M.36,548.64H20.28c35.06-.08,59.11,19.51,100.68,35.49H73.47c-23.24-7.92-33.19-16.34-53.19-15.32H.36Z"/></g><g id="letras"><polygon id="F" class="cls-2" points="447.58 169.83 447.58 195.87 376.95 195.87 376.95 310.43 447.58 310.43 447.58 338 376.95 338 376.95 435.02 346.82 435.02 346.82 169.83 447.58 169.83"/><g id="flama_con_l" data-name="flama con l"><path id="L" class="cls-1" d="M267,281.32V456.64h110.3v25.7H236V310.26C243.56,296.67,254.76,285.75,267,281.32Z"/><g id="flama"><path class="cls-1" d="M293,201.15V241c-14.71,10.05-55.66,31.92-72.26,61.45C214.82,258.6,253,231.67,293,201.15Z"/><path class="cls-3" d="M267.45,257.42s21.78-14,25.5-16.44V201.15C269.85,224.34,280.74,242.64,267.45,257.42Z"/><path class="cls-1" d="M209.46,54.94c1,21.18,11.23,29.89,12.59,44.4,4.3,27.25-9.35,42.28-21.1,54-16.34-11.9-25.19-24.51-21.79-49.19C183.59,84.83,192.44,70.32,209.46,54.94Z"/><path class="cls-3" d="M201,153.32c-20.29-18.64,5.24-26.94,0-45.36,6.39-7.36,21.2,8.59,20.85-10.62C226.74,120.38,217.31,137.13,201,153.32Z"/><path class="cls-1" d="M211.76,255.28s-9.2-35.24,11.1-67.15c32.2-46.72,71.87-62.81,61.66-119,12.57,21.44,24.36,41.92,18.13,76.85C295.5,188.9,242.9,207,211.76,255.28Z"/><path class="cls-3" d="M284.52,69.15c16.06,27.41,27.4,55.62,15.15,87.83-14.58,38.34-55.69,51.62-87.91,98.3C243.47,173.87,323.13,169.4,284.52,69.15Z"/><path class="cls-1" d="M227.33,157S249,128.9,245,58.94c0,0,27.06,16.08,23.23,46.72C263,132.76,246,143.17,227.33,157Z"/><path class="cls-3" d="M241.63,118.46c9.5-5.1,6.31,18.76,16.67,11.14-7.32,9.78-18.1,18.81-31,27.38C234.09,146.51,238.54,133.84,241.63,118.46Z"/></g></g><g id="J"><path class="cls-2" d="M60,169.83H167.93V482.34H60V457c4.85-14.89,22.81-24.51,32.68-22v21.62h44.6V195.87H60Z"/><path class="cls-2" d="M60,422.94V388.21H92.69v25.54C82.73,411.64,71.76,415.13,60,422.94Z"/></g></g><g id="yonke"><polygon class="cls-2" points="145.8 500.05 184.78 500.05 184.78 587.87 145.8 569.49 145.8 500.05"/><polygon class="cls-4" points="145.8 569.49 184.78 587.87 184.78 571.15 145.8 554.81 145.8 569.49"/><path class="cls-2" d="M128.78,500.73v58.89L2.31,500Z"/><polygon class="cls-4" points="128.78 560.94 2.31 500.05 128.78 547.32 128.78 560.94"/><path class="cls-2" d="M201.2,500V617.58s.26,32.93-45.44,48.25v13.53H355V665.7s-39.44-11.1-42.76-41.49c0,0-5.11-34.46,19.66-48.25L505.29,500Z"/><path class="cls-5" d="M320.77,644c-2.54-5.65-26.58-54.34,21.7-72.7L505.29,500l-167.18,48.6C307.33,559.62,263.21,614,320.77,644Z"/></g></g></g></g></svg>