<svg xmlns="http://www.w3.org/2000/svg" viewBox="0 0 936.55 176.92"><defs><style>.cls-1{fill:#892d17;}.cls-2{fill:#5c1d10;}.cls-3{fill:#fff;}.cls-4,.cls-5{fill:#424346;stroke:#424346;}.cls-4{stroke-miterlimit:10;stroke-width:0.5px;}.cls-5{stroke-linecap:round;stroke-linejoin:bevel;stroke-width:0.25px;}</style></defs><title>Recurso 11</title><g id="Capa_2" data-name="Capa 2"><g id="com_negro" data-name="com negro"><g id="logo"><g id="porton"><path id="cabecera_porton" data-name="cabecera porton" class="cls-1" d="M0,37.94V68H8.54V45.87c38,3.11,62.75-36.54,93.23-37.1,34.84,1.94,55.61,40.21,93.47,36.89V67.8h8.54V37.73c-40.66,8.52-63.35-37-102-37.73C56.93,3.33,43.4,43.38,0,37.94Z"/><g id="lados"><rect class="cls-1" x="195.24" y="81.23" width="8.54" height="17.49"/><rect class="cls-1" x="0.15" y="81.23" width="8" height="17.49"/></g><g id="bajo_porton" data-name="bajo porton"><path class="cls-1" d="M203.64,124.82h-8c-14.08,0-23.73,7.84-40.42,14.25h19.06c9.33-3.18,13.33-6.56,21.36-6.15h8Z"/><path class="cls-1" d="M.15,124.82h8c14.08,0,23.73,7.84,40.42,14.25H29.49c-9.32-3.18-13.32-6.56-21.35-6.15h-8Z"/></g></g><g id="flama"><path class="cls-1" d="M118.63,66.47v13c-4.8,3.28-18.16,10.41-23.57,20C93.14,85.21,105.59,76.43,118.63,66.47Z"/><path class="cls-2" d="M110.31,84.83s7.11-4.57,8.32-5.36v-13C111.09,74,114.65,80,110.31,84.83Z"/><path class="cls-1" d="M91.39,18.78c.34,6.91,3.67,9.75,4.11,14.48,1.4,8.89-3,13.79-6.88,17.61-5.33-3.88-8.22-8-7.11-16C83,28.53,85.84,23.8,91.39,18.78Z"/><path class="cls-2" d="M88.62,50.87c-6.62-6.08,1.71-8.78,0-14.79,2.08-2.41,6.91,2.8,6.8-3.47C97,40.13,94,45.59,88.62,50.87Z"/><path class="cls-1" d="M92.14,84.13s-3-11.49,3.62-21.9C106.27,47,119.21,41.74,115.88,23.42c4.1,7,8,13.67,5.91,25.07C119.46,62.48,102.3,68.39,92.14,84.13Z"/><path class="cls-2" d="M115.88,23.42c5.24,8.94,8.93,18.14,4.94,28.65-4.76,12.5-18.17,16.83-28.68,32.06C102.49,57.58,128.47,56.12,115.88,23.42Z"/><path class="cls-1" d="M97.22,52.07s7.08-9.17,5.75-32c0,0,8.83,5.25,7.58,15.25C108.85,44.17,103.32,47.56,97.22,52.07Z"/><path class="cls-2" d="M101.89,39.5c3.1-1.66,2.06,6.12,5.43,3.63a40.61,40.61,0,0,1-10.1,8.94A35.82,35.82,0,0,0,101.89,39.5Z"/></g><g id="yonke"><polygon class="cls-3" points="60.06 107.47 75.16 107.47 75.16 141.48 60.06 134.36 60.06 107.47"/><polygon class="cls-4" points="60.06 134.36 75.16 141.48 75.16 135.01 60.06 128.68 60.06 134.36"/><path class="cls-3" d="M53.47,107.73v22.81l-49-23.07Z"/><polygon class="cls-4" points="53.47 131.05 4.49 107.47 53.47 125.78 53.47 131.05"/><path class="cls-3" d="M81.52,107.47V153s.1,12.75-17.6,18.68v5.25h77.17v-5.29s-15.27-4.31-16.56-16.07c0,0-2-13.35,7.62-18.69l67.13-29.4Z"/><path class="cls-5" d="M127.83,163.24c-1-2.19-10.3-21.05,8.4-28.16l63.05-27.61-64.74,18.82C122.62,130.54,105.54,151.62,127.83,163.24Z"/></g></g><g id="letras"><path class="cls-1" d="M236.66,123.72a25,25,0,0,1-11.17-2.35,23.64,23.64,0,0,1-8.09-6.56l10.06-9.68a11.79,11.79,0,0,0,4.07,3.64,11.17,11.17,0,0,0,5.32,1.25,9.92,9.92,0,0,0,5-1.2,8.76,8.76,0,0,0,3.35-3.45,11.47,11.47,0,0,0,1.25-5.61V55h15.14V98.9A26.82,26.82,0,0,1,258.5,112a21.54,21.54,0,0,1-8.62,8.62A27,27,0,0,1,236.66,123.72Z"/><path class="cls-1" d="M274,122.66V55h15.05v67.64Zm11.6,0V109.44h33.43v13.22Z"/><path class="cls-1" d="M328.25,122.66V55h15v67.64ZM339.75,68V55H375.1V68Zm0,28.17V83.19h33.82V96.12Z"/><path class="cls-3" d="M403,122.66V55h10.74l26.63,41.49h-5.46L461.43,55h10.83v67.64H457.21V80.41l2.69.67-17.34,27h-10l-17.25-27,2.59-.67v42.25Z"/><path class="cls-3" d="M507.32,123.72a28.34,28.34,0,0,1-13.46-3.12,23.22,23.22,0,0,1-9.25-8.67,24.23,24.23,0,0,1,8.92-33.72A25.59,25.59,0,0,1,506.27,75a24.49,24.49,0,0,1,12.17,3,21.7,21.7,0,0,1,8.28,8.24,23.81,23.81,0,0,1,3,12.08c0,.83,0,1.71-.14,2.63a31.3,31.3,0,0,1-.53,3.21l-40.14.1V94.21l33.91-.1-6.32,4.22a17.85,17.85,0,0,0-1.24-6.66,8.7,8.7,0,0,0-3.41-4,10.36,10.36,0,0,0-5.51-1.39,11.09,11.09,0,0,0-6,1.58,10.42,10.42,0,0,0-3.93,4.46,15.93,15.93,0,0,0-1.39,7,15.42,15.42,0,0,0,1.48,7,10.62,10.62,0,0,0,4.22,4.5,12.74,12.74,0,0,0,6.47,1.58,15.59,15.59,0,0,0,6.23-1.2,13.57,13.57,0,0,0,4.88-3.59l8,8a21.73,21.73,0,0,1-8.34,6A27.72,27.72,0,0,1,507.32,123.72Z"/><path class="cls-3" d="M532.42,88.55V76.1h35.74V88.55ZM543,122.66V56.84h14.66v65.82Z"/><path class="cls-3" d="M593.55,123.62a21.06,21.06,0,0,1-11.45-3.16,22.57,22.57,0,0,1-8-8.62,28,28,0,0,1,0-24.92,22.57,22.57,0,0,1,8-8.62,21.06,21.06,0,0,1,11.45-3.16A19.35,19.35,0,0,1,602,77a16.5,16.5,0,0,1,6.18,5,13.55,13.55,0,0,1,2.68,7.33v20.12a13.8,13.8,0,0,1-2.63,7.33,16,16,0,0,1-6.18,5A19.7,19.7,0,0,1,593.55,123.62Zm3-13.22a9.8,9.8,0,0,0,7.57-3.12,11.17,11.17,0,0,0,2.88-7.9,12.34,12.34,0,0,0-1.3-5.75A9.46,9.46,0,0,0,602,89.75a11.24,11.24,0,0,0-10.83,0,10.16,10.16,0,0,0-3.73,3.88,12.58,12.58,0,0,0-.05,11.4,10,10,0,0,0,3.74,3.93A10.17,10.17,0,0,0,596.52,110.4Zm9.87,12.26V110.11l2.2-11.3-2.2-11.31V76.1h14.37v46.56Z"/><path class="cls-3" d="M631.59,122.66V53.1h14.66v69.56Z"/><path class="cls-3" d="M709,123.72A35.71,35.71,0,0,1,695.16,121a34.57,34.57,0,0,1-21.51-32.29A33.59,33.59,0,0,1,676.43,75,34.34,34.34,0,0,1,684.14,64a35.46,35.46,0,0,1,11.55-7.38A37.83,37.83,0,0,1,709.87,54a38.68,38.68,0,0,1,15.85,3.16,32.23,32.23,0,0,1,11.83,8.72L727.3,76.1a21.34,21.34,0,0,0-7.66-6.33,22.9,22.9,0,0,0-10-2.1A21.4,21.4,0,0,0,699,70.3a18.72,18.72,0,0,0-7.33,7.38,22.37,22.37,0,0,0-2.64,11.06,23.09,23.09,0,0,0,2.59,11.12,19,19,0,0,0,7.09,7.47A19.81,19.81,0,0,0,709.1,110a20.92,20.92,0,0,0,10.11-2.26,15.39,15.39,0,0,0,6.42-6.51,22,22,0,0,0,2.25-10.4l10,6.71-30.18-.48V84.34h35.55v2.2q0,12.17-4.36,20.46a29.51,29.51,0,0,1-12.07,12.5A36.51,36.51,0,0,1,709,123.72Z"/><path class="cls-3" d="M770.9,123.62a21,21,0,0,1-11.45-3.16,22.51,22.51,0,0,1-8-8.62,28,28,0,0,1,0-24.92,22.51,22.51,0,0,1,8-8.62,21,21,0,0,1,11.45-3.16A19.39,19.39,0,0,1,779.38,77a16.5,16.5,0,0,1,6.18,5,13.63,13.63,0,0,1,2.68,7.33v20.12a13.72,13.72,0,0,1-2.64,7.33,15.9,15.9,0,0,1-6.18,5A19.63,19.63,0,0,1,770.9,123.62Zm3-13.22a9.79,9.79,0,0,0,7.56-3.12,11.17,11.17,0,0,0,2.88-7.9A12.33,12.33,0,0,0,783,93.63a9.6,9.6,0,0,0-3.64-3.88,11.24,11.24,0,0,0-10.83,0,10.19,10.19,0,0,0-3.74,3.88,11.57,11.57,0,0,0-1.39,5.75,11.76,11.76,0,0,0,1.34,5.65A10,10,0,0,0,768.5,109,10.21,10.21,0,0,0,773.87,110.4Zm9.86,12.26V110.11l2.21-11.3L783.73,87.5V76.1h14.38v46.56Z"/><path class="cls-3" d="M805,88.55V76.1h35.74V88.55Zm10.54,34.11V56.84H830.2v65.82Z"/><path class="cls-3" d="M869.68,123.72a28.36,28.36,0,0,1-13.47-3.12,23.19,23.19,0,0,1-9.24-8.67,24.22,24.22,0,0,1,8.91-33.72A25.62,25.62,0,0,1,868.62,75a24.46,24.46,0,0,1,12.17,3,21.73,21.73,0,0,1,8.29,8.24,23.91,23.91,0,0,1,3,12.08A24.42,24.42,0,0,1,892,101a31,31,0,0,1-.52,3.21l-40.15.1V94.21l33.92-.1-6.33,4.22a17.85,17.85,0,0,0-1.24-6.66,8.68,8.68,0,0,0-3.4-4,10.36,10.36,0,0,0-5.51-1.39,11.13,11.13,0,0,0-6,1.58,10.55,10.55,0,0,0-3.93,4.46,15.93,15.93,0,0,0-1.39,7,15.42,15.42,0,0,0,1.49,7,10.59,10.59,0,0,0,4.21,4.5,12.74,12.74,0,0,0,6.47,1.58,15.59,15.59,0,0,0,6.23-1.2,13.6,13.6,0,0,0,4.89-3.59l8,8a21.69,21.69,0,0,1-8.33,6A27.79,27.79,0,0,1,869.68,123.72Z"/><path class="cls-3" d="M916.62,123.81a31.56,31.56,0,0,1-8.09-1,30,30,0,0,1-7.38-3,24.73,24.73,0,0,1-5.8-4.55l8.34-8.43a16.24,16.24,0,0,0,5.46,3.88,16.91,16.91,0,0,0,6.9,1.39,8.41,8.41,0,0,0,4-.77,2.33,2.33,0,0,0,1.38-2.11,2.87,2.87,0,0,0-1.67-2.63,20.45,20.45,0,0,0-4.27-1.63q-2.58-.72-5.46-1.58a24.57,24.57,0,0,1-5.46-2.4,11.94,11.94,0,0,1-4.21-4.26A15,15,0,0,1,901,81.89a15.55,15.55,0,0,1,6.51-5.22,23.78,23.78,0,0,1,9.87-1.91,28.53,28.53,0,0,1,11,2.06,19.63,19.63,0,0,1,8.19,6.08l-8.33,8.43a12.47,12.47,0,0,0-4.94-3.64,14.76,14.76,0,0,0-5.32-1,7.62,7.62,0,0,0-3.73.72A2.25,2.25,0,0,0,913,89.42a2.59,2.59,0,0,0,1.63,2.3,20.18,20.18,0,0,0,4.22,1.53q2.58.68,5.46,1.63a25.24,25.24,0,0,1,5.46,2.58,13,13,0,0,1,4.22,4.36A13.87,13.87,0,0,1,935.6,109a13.07,13.07,0,0,1-5.13,10.83Q925.34,123.81,916.62,123.81Z"/></g></g></g></svg>